<svg xmlns:dc="http://purl.org/dc/elements/1.1/" xmlns:cc="http://creativecommons.org/ns#" xmlns:rdf="http://www.w3.org/1999/02/22-rdf-syntax-ns#" xmlns:svg="http://www.w3.org/2000/svg" xmlns="http://www.w3.org/2000/svg" xmlns:sodipodi="http://sodipodi.sourceforge.net/DTD/sodipodi-0.dtd" xmlns:inkscape="http://www.inkscape.org/namespaces/inkscape" width="100" height="100" viewBox="0 0 80 80" version="1.1" id="svg2" inkscape:version="0.48.2 r9819" sodipodi:docname="apple.svg">
  <metadata id="metadata10">
    <rdf:RDF>
      <cc:Work rdf:about="">
        <dc:format>image/svg+xml</dc:format>
        <dc:type rdf:resource="http://purl.org/dc/dcmitype/StillImage"/>
        <dc:title/>
      </cc:Work>
    </rdf:RDF>
  </metadata>
  <defs id="defs8"/>
  <sodipodi:namedview pagecolor="#ffffff" bordercolor="#666666" borderopacity="1" objecttolerance="10" gridtolerance="10" guidetolerance="10" inkscape:pageopacity="0" inkscape:pageshadow="2" inkscape:window-width="1600" inkscape:window-height="853" id="namedview6" showgrid="true" inkscape:zoom="4.688118" inkscape:cx="13.576816" inkscape:cy="59.691946" inkscape:window-x="-4" inkscape:window-y="-4" inkscape:window-maximized="1" inkscape:current-layer="svg2" inkscape:snap-grids="false">
    <inkscape:grid type="xygrid" id="grid3807"/>
  </sodipodi:namedview>
  <path style="fill:#000000;stroke:none" d="m 40.196078,28.431372 c 3.757308,0.376239 9.435377,-2.315951 13.197587,-2.639517 6.547103,-0.563078 14.286022,1.93384 17.49623,7.390649 6.410335,10.896484 2.340833,26.812612 -4.072399,37.70739 C 63.321875,76.828245 56.753975,81.88738 49.924585,82.80543 47.434166,83.140208 45.335207,80.498647 42.835596,80.241328 41.067397,80.059303 39.244562,81.552532 37.556561,80.995475 31.918536,79.13487 28.565832,73.1365 24.886877,68.476621 19.665718,61.863337 16.368934,53.379006 19.155355,42.835596 21.166781,35.224651 28.382175,27.248382 40.196078,28.431372 z" id="path3874" inkscape:connector-curvature="0" transform="scale(0.8,0.8)" sodipodi:nodetypes="ssaaaaasss"/>
  <path style="fill:#000000;stroke:#000000;stroke-width:0.80000001px;stroke-linecap:butt;stroke-linejoin:miter;stroke-opacity:1" d="m 34.751131,13.514329 c 0.239063,-0.64187 2.163608,-0.555006 2.051282,0.120663 -0.266208,1.6013 -1.5517,3.54665 -1.930618,5.429865 -0.286059,1.421703 -0.241328,4.343891 -0.241328,4.343891 l -1.206636,0 c 0,0 0.240994,-3.548677 0.482655,-5.309201 0.211347,-1.539684 0.28527,-3.083324 0.844645,-4.585218 z" id="path3876" inkscape:connector-curvature="0" sodipodi:nodetypes="ssaccas"/>
</svg>